<svg version="1.2" xmlns="http://www.w3.org/2000/svg" viewBox="0 0 787 573" width="787" height="573">
	<title>undraw_programming_65t2</title>
	<style>
		.s0 { fill: #ff9b00 } 
		.s1 { fill: #f2f2f2 } 
		.s2 { fill: #3f3d56 } 
		.s3 { fill: #765481 } 
		.s4 { fill: #5a0075 } 
		.s5 { fill: #ffffff } 
		.s6 { fill: #ffb6b6 } 
		.s7 { fill: #2f2e41 } 
		.s8 { fill: #e6e6e6 } 
		.s9 { opacity: .4;fill: #765481 } 
	</style>
	<path class="s0" d="m458.3 100.9c-14.7 0-26.7-12-26.7-26.7 0-14.8 12-26.7 26.7-26.7 14.8 0 26.7 11.9 26.7 26.7 0 14.7-11.9 26.7-26.7 26.7z"/>
	<path class="s1" d="m665.4 499.2c39.7-30.3 58.7-81.1 46.8-129.5q-0.4-1.8-0.9-3.6c-7.9-28.8-27.3-56.1-55.7-65.3-23.8-7.7-49.8-1.8-74.7-4.9-48.8-6-86.6-45.5-113.2-86.8-26.6-41.3-47.1-87.6-82.4-121.7-58.3-56.3-153.4-68.4-225.6-31.8-72.3 36.7-118.3 117.9-116.4 198.9 2 81 50.1 158.4 119.9 199.5 25.7 15.1 55.3 25.8 84.9 22.1 25.6-3.3 48.9-17 74.3-21.1 40.1-6.5 80 11.7 114.7 32.8 34.6 21.1 68.1 46.2 107.5 56 38.3 9.5 85.7-17.9 120.8-44.6z"/>
	<path fill-rule="evenodd" class="s2" d="m612.7 58.8v353.4h-117l2.1-28.9 11.5-159h-231.6l11.5 159 2.1 28.9h-118.3v-344.1q3.3-2.4 6.6-4.8 0.6-0.4 1.3-0.9 9.5-6.6 19.5-12.7 9.9-6.1 20.1-11.5 10.3-5.5 20.9-10.3 10.6-4.8 21.4-9l6.3 86h40.1v-100.4q3.9-1 7.9-1.9v0.1c0 13.4 2.6 26.7 7.8 39.1 5.1 12.4 12.6 23.7 22.1 33.2 9.5 9.5 20.8 17 33.2 22.1 12.4 5.2 25.7 7.8 39.2 7.8h49.2v-104.9q4 0.7 7.9 1.5v103.4h41.5l6.5-90.2q10.6 3.7 20.9 7.9 10.3 4.3 20.4 9.2 10.1 4.9 19.8 10.3 9.8 5.5 19.2 11.5 1.3 0.9 2.6 1.7 2.7 1.7 5.3 3.5zm-303.5 54h-39.6l6.2 85.3h33.4zm159.4 0h-151.5v85.3h58.7v-1.7q0-1.2 0.5-2.4 0.4-1.1 1.3-2 0.9-0.8 2-1.3 1.1-0.5 2.4-0.5h24.4q1.2 0 2.3 0.5 1.2 0.5 2 1.3 0.9 0.9 1.4 2 0.4 1.2 0.4 2.4v1.7h56.1zm42.6 85.3l6.2-85.3h-40.9v85.3z"/>
	<path class="s2" d="m0 434.3q3.3 3.8 6.6 7.6 3.4 3.7 7 7.4 3.5 3.6 7.1 7.1 3.7 3.5 7.4 6.8l730.6 1q3.8-3.3 7.4-6.8 3.6-3.5 7.2-7.1 3.5-3.7 6.9-7.4 3.4-3.8 6.6-7.6z"/>
	<path class="s2" d="m495.4 341.6v85.7q0 0.8 0.3 1.6 0.4 0.7 0.9 1.3 0.6 0.6 1.4 0.9 0.7 0.3 1.5 0.3h127.1q0.8 0 1.5-0.3 0.8-0.3 1.4-0.9 0.5-0.6 0.9-1.3 0.3-0.8 0.3-1.6v-85.7q0-0.8-0.3-1.6-0.4-0.7-0.9-1.3-0.6-0.6-1.4-0.9-0.7-0.3-1.5-0.3h-127.1q-0.8 0-1.5 0.3-0.8 0.3-1.4 0.9-0.5 0.6-0.9 1.3-0.3 0.8-0.3 1.6z"/>
	<path class="s3" d="m498.4 342.7v83.5q0 0.5 0.2 0.9 0.1 0.4 0.5 0.7 0.3 0.3 0.7 0.5 0.4 0.1 0.8 0.1h124.9q0.4 0 0.8-0.1 0.4-0.2 0.8-0.5 0.3-0.3 0.4-0.7 0.2-0.4 0.2-0.9v-83.5q0-0.5-0.2-0.9-0.1-0.4-0.4-0.7-0.4-0.3-0.8-0.5-0.4-0.1-0.8-0.1h-124.9q-0.4 0-0.8 0.1-0.4 0.2-0.7 0.5-0.4 0.3-0.5 0.7-0.2 0.4-0.2 0.9z"/>
	<path class="s4" d="m492.8 444q0.1 0.2 0.4 0.4 0.2 0.2 0.4 0.3 0.3 0.1 0.6 0.2 0.2 0 0.5 0h136q0.6 0 1.1-0.2 0.5-0.2 0.8-0.7 0.4-0.4 0.5-1 0.2-0.5 0.1-1.1l-2.2-10q0-0.3-0.2-0.6-0.1-0.3-0.3-0.5-0.2-0.2-0.5-0.4-0.2-0.2-0.5-0.3-0.1-0.1-0.2-0.1-0.1 0-0.3 0-0.1-0.1-0.2-0.1-0.1 0-0.2 0h-131.8q-0.1 0-0.2 0-0.1 0-0.2 0.1-0.1 0-0.3 0-0.1 0-0.2 0.1-0.3 0.1-0.5 0.3-0.3 0.2-0.5 0.4-0.2 0.2-0.3 0.5-0.2 0.3-0.2 0.6l-2.1 10q-0.1 0.3-0.1 0.6 0 0.3 0.1 0.5 0 0.3 0.2 0.5 0.1 0.3 0.3 0.5z"/>
	<path class="s2" d="m627.1 434.2h-3.2c-0.2 0-0.5-0.2-0.5-0.5v-1.5c0-0.3 0.3-0.5 0.5-0.5h3.2c0.3 0 0.5 0.2 0.5 0.5v1.5c0 0.3-0.2 0.5-0.5 0.5z"/>
	<path class="s2" d="m618.8 434.2h-3.2c-0.3 0-0.5-0.2-0.5-0.5v-1.5c0-0.3 0.2-0.5 0.5-0.5h3.2c0.2 0 0.5 0.2 0.5 0.5v1.5c0 0.3-0.3 0.5-0.5 0.5z"/>
	<path class="s2" d="m610.4 434.2h-3.2c-0.3 0-0.5-0.2-0.5-0.5v-1.5c0-0.3 0.2-0.5 0.5-0.5h3.2c0.3 0 0.5 0.2 0.5 0.5v1.5c0 0.3-0.2 0.5-0.5 0.5z"/>
	<path class="s2" d="m602 434.2h-3.2c-0.3 0-0.5-0.2-0.5-0.5v-1.5c0-0.3 0.2-0.5 0.5-0.5h3.2c0.3 0 0.5 0.2 0.5 0.5v1.5c0 0.3-0.2 0.5-0.5 0.5z"/>
	<path class="s2" d="m593.6 434.2h-3.2c-0.2 0-0.5-0.2-0.5-0.5v-1.5c0-0.3 0.3-0.5 0.5-0.5h3.2c0.3 0 0.5 0.2 0.5 0.5v1.5c0 0.3-0.2 0.5-0.5 0.5z"/>
	<path class="s2" d="m585.3 434.2h-3.3c-0.2 0-0.4-0.2-0.4-0.5v-1.5c0-0.3 0.2-0.5 0.4-0.5h3.3c0.2 0 0.4 0.2 0.4 0.5v1.5c0 0.3-0.2 0.5-0.4 0.5z"/>
	<path class="s2" d="m576.9 434.2h-3.2c-0.3 0-0.5-0.2-0.5-0.5v-1.5c0-0.3 0.2-0.5 0.5-0.5h3.2c0.3 0 0.5 0.2 0.5 0.5v1.5c0 0.3-0.2 0.5-0.5 0.5z"/>
	<path class="s2" d="m568.5 434.2h-3.2c-0.3 0-0.5-0.2-0.5-0.5v-1.5c0-0.3 0.2-0.5 0.5-0.5h3.2c0.3 0 0.5 0.2 0.5 0.5v1.5c0 0.3-0.2 0.5-0.5 0.5z"/>
	<path class="s2" d="m560.1 434.2h-3.2c-0.3 0-0.5-0.2-0.5-0.5v-1.5c0-0.3 0.2-0.5 0.5-0.5h3.2c0.3 0 0.5 0.2 0.5 0.5v1.5c0 0.3-0.2 0.5-0.5 0.5z"/>
	<path class="s2" d="m551.8 434.2h-3.3c-0.2 0-0.4-0.2-0.4-0.5v-1.5c0-0.3 0.2-0.5 0.4-0.5h3.3c0.2 0 0.4 0.2 0.4 0.5v1.5c0 0.3-0.2 0.5-0.4 0.5z"/>
	<path class="s2" d="m543.4 434.2h-3.2c-0.3 0-0.5-0.2-0.5-0.5v-1.5c0-0.3 0.2-0.5 0.5-0.5h3.2c0.2 0 0.5 0.2 0.5 0.5v1.5c0 0.3-0.3 0.5-0.5 0.5z"/>
	<path class="s2" d="m535 434.2h-3.2c-0.3 0-0.5-0.2-0.5-0.5v-1.5c0-0.3 0.2-0.5 0.5-0.5h3.2c0.3 0 0.5 0.2 0.5 0.5v1.5c0 0.3-0.2 0.5-0.5 0.5z"/>
	<path class="s2" d="m526.6 434.2h-3.2c-0.3 0-0.5-0.2-0.5-0.5v-1.5c0-0.3 0.2-0.5 0.5-0.5h3.2c0.3 0 0.5 0.2 0.5 0.5v1.5c0 0.3-0.2 0.5-0.5 0.5z"/>
	<path class="s2" d="m518.2 434.2h-3.2c-0.2 0-0.5-0.2-0.5-0.5v-1.5c0-0.3 0.3-0.5 0.5-0.5h3.2c0.3 0 0.5 0.2 0.5 0.5v1.5c0 0.3-0.2 0.5-0.5 0.5z"/>
	<path class="s2" d="m509.9 434.2h-3.2c-0.3 0-0.5-0.2-0.5-0.5v-1.5c0-0.3 0.2-0.5 0.5-0.5h3.2c0.2 0 0.5 0.2 0.5 0.5v1.5c0 0.3-0.3 0.5-0.5 0.5z"/>
	<path class="s2" d="m501.5 434.2h-3.2c-0.3 0-0.5-0.2-0.5-0.5v-1.5c0-0.3 0.2-0.5 0.5-0.5h3.2c0.3 0 0.5 0.2 0.5 0.5v1.5c0 0.3-0.2 0.5-0.5 0.5z"/>
	<path class="s2" d="m627.2 438.4h-3.2c-0.2 0-0.5-0.2-0.5-0.5v-1.5c0-0.3 0.3-0.5 0.5-0.5h3.2c0.3 0 0.5 0.2 0.5 0.5v1.5c0 0.3-0.2 0.5-0.5 0.5z"/>
	<path class="s2" d="m618.9 438.4h-3.2c-0.3 0-0.5-0.2-0.5-0.5v-1.5c0-0.3 0.2-0.5 0.5-0.5h3.2c0.2 0 0.5 0.2 0.5 0.5v1.5c0 0.3-0.3 0.5-0.5 0.5z"/>
	<path class="s2" d="m610.5 438.4h-3.2c-0.3 0-0.5-0.2-0.5-0.5v-1.5c0-0.3 0.2-0.5 0.5-0.5h3.2c0.3 0 0.5 0.2 0.5 0.5v1.5c0 0.3-0.2 0.5-0.5 0.5z"/>
	<path class="s2" d="m602.1 438.4h-3.2c-0.3 0-0.5-0.2-0.5-0.5v-1.5c0-0.3 0.2-0.5 0.5-0.5h3.2c0.3 0 0.5 0.2 0.5 0.5v1.5c0 0.3-0.2 0.5-0.5 0.5z"/>
	<path class="s2" d="m593.7 438.4h-3.2c-0.2 0-0.5-0.2-0.5-0.5v-1.5c0-0.3 0.3-0.5 0.5-0.5h3.2c0.3 0 0.5 0.2 0.5 0.5v1.5c0 0.3-0.2 0.5-0.5 0.5z"/>
	<path class="s2" d="m585.4 438.4h-3.3c-0.2 0-0.4-0.2-0.4-0.5v-1.5c0-0.3 0.2-0.5 0.4-0.5h3.3c0.2 0 0.4 0.2 0.4 0.5v1.5c0 0.3-0.2 0.5-0.4 0.5z"/>
	<path class="s2" d="m577 438.4h-3.2c-0.3 0-0.5-0.2-0.5-0.5v-1.5c0-0.3 0.2-0.5 0.5-0.5h3.2c0.3 0 0.5 0.2 0.5 0.5v1.5c0 0.3-0.2 0.5-0.5 0.5z"/>
	<path class="s2" d="m568.6 438.4h-3.2c-0.3 0-0.5-0.2-0.5-0.5v-1.5c0-0.3 0.2-0.5 0.5-0.5h3.2c0.3 0 0.5 0.2 0.5 0.5v1.5c0 0.3-0.2 0.5-0.5 0.5z"/>
	<path class="s2" d="m560.2 438.4h-3.2c-0.3 0-0.5-0.2-0.5-0.5v-1.5c0-0.3 0.2-0.5 0.5-0.5h3.2c0.3 0 0.5 0.2 0.5 0.5v1.5c0 0.3-0.2 0.5-0.5 0.5z"/>
	<path class="s2" d="m551.9 438.4h-3.3c-0.2 0-0.5-0.2-0.5-0.5v-1.5c0-0.3 0.3-0.5 0.5-0.5h3.3c0.2 0 0.4 0.2 0.4 0.5v1.5c0 0.3-0.2 0.5-0.4 0.5z"/>
	<path class="s2" d="m543.5 438.4h-3.2c-0.3 0-0.5-0.2-0.5-0.5v-1.5c0-0.3 0.2-0.5 0.5-0.5h3.2c0.2 0 0.5 0.2 0.5 0.5v1.5c0 0.3-0.3 0.5-0.5 0.5z"/>
	<path class="s2" d="m535.1 438.4h-3.2c-0.3 0-0.5-0.2-0.5-0.5v-1.5c0-0.3 0.2-0.5 0.5-0.5h3.2c0.3 0 0.5 0.2 0.5 0.5v1.5c0 0.3-0.2 0.5-0.5 0.5z"/>
	<path class="s2" d="m526.7 438.4h-3.2c-0.3 0-0.5-0.2-0.5-0.5v-1.5c0-0.3 0.2-0.5 0.5-0.5h3.2c0.3 0 0.5 0.2 0.5 0.5v1.5c0 0.3-0.2 0.5-0.5 0.5z"/>
	<path class="s2" d="m518.3 438.4h-3.2c-0.2 0-0.5-0.2-0.5-0.5v-1.5c0-0.3 0.3-0.5 0.5-0.5h3.2c0.3 0 0.5 0.2 0.5 0.5v1.5c0 0.3-0.2 0.5-0.5 0.5z"/>
	<path class="s2" d="m510 438.4h-3.2c-0.3 0-0.5-0.2-0.5-0.5v-1.5c0-0.3 0.2-0.5 0.5-0.5h3.2c0.2 0 0.5 0.2 0.5 0.5v1.5c0 0.3-0.3 0.5-0.5 0.5z"/>
	<path class="s2" d="m501.6 438.4h-3.2c-0.3 0-0.5-0.2-0.5-0.5v-1.5c0-0.3 0.2-0.5 0.5-0.5h3.2c0.3 0 0.5 0.2 0.5 0.5v1.5c0 0.3-0.2 0.5-0.5 0.5z"/>
	<path class="s2" d="m587 443.4h-32.5c-0.3 0-0.5-0.2-0.5-0.4v-1.6c0-0.2 0.2-0.5 0.5-0.5h32.5c0.3 0 0.5 0.3 0.5 0.5v1.6c0 0.2-0.2 0.4-0.5 0.4z"/>
	<path class="s5" d="m517.2 358.7h2.8c0.9 0 1.6 0.7 1.6 1.6 0 0.9-0.7 1.6-1.6 1.6h-2.8c-0.9 0-1.6-0.7-1.6-1.6 0-0.9 0.7-1.6 1.6-1.6z"/>
	<path class="s5" d="m549.7 358.7h2.9c0.8 0 1.5 0.7 1.5 1.6 0 0.9-0.7 1.6-1.5 1.6h-2.9c-0.8 0-1.5-0.7-1.5-1.6 0-0.9 0.7-1.6 1.5-1.6z"/>
	<path class="s5" d="m558.9 358.7h2.9c0.8 0 1.5 0.7 1.5 1.6 0 0.9-0.7 1.6-1.5 1.6h-2.9c-0.8 0-1.5-0.7-1.5-1.6 0-0.9 0.7-1.6 1.5-1.6z"/>
	<path class="s5" d="m526 358.5h17.7c0.9 0 1.6 0.7 1.6 1.5 0 0.9-0.7 1.6-1.6 1.6h-17.7c-0.8 0-1.5-0.7-1.5-1.6 0-0.8 0.7-1.5 1.5-1.5z"/>
	<path class="s5" d="m569.4 358.5h17.7c0.8 0 1.5 0.7 1.5 1.5 0 0.9-0.7 1.6-1.5 1.6h-17.7c-0.9 0-1.6-0.7-1.6-1.6 0-0.8 0.7-1.5 1.6-1.5z"/>
	<path class="s5" d="m525.9 365.8h2.8c0.9 0 1.6 0.7 1.6 1.5 0 0.9-0.7 1.6-1.6 1.6h-2.8c-0.9 0-1.6-0.7-1.6-1.6 0-0.8 0.7-1.5 1.6-1.5z"/>
	<path class="s5" d="m558.4 365.8h2.8c0.9 0 1.6 0.7 1.6 1.5 0 0.9-0.7 1.6-1.6 1.6h-2.8c-0.9 0-1.6-0.7-1.6-1.6 0-0.8 0.7-1.5 1.6-1.5z"/>
	<path class="s5" d="m567.6 365.8h2.8c0.9 0 1.6 0.7 1.6 1.5 0 0.9-0.7 1.6-1.6 1.6h-2.8c-0.9 0-1.6-0.7-1.6-1.6 0-0.8 0.7-1.5 1.6-1.5z"/>
	<path class="s5" d="m534.7 365.5h17.7c0.8 0 1.5 0.7 1.5 1.6 0 0.8-0.7 1.5-1.5 1.5h-17.7c-0.9 0-1.5-0.7-1.5-1.5 0-0.9 0.6-1.6 1.5-1.6z"/>
	<path class="s5" d="m578.1 365.5h17.6c0.9 0 1.6 0.7 1.6 1.6 0 0.8-0.7 1.5-1.6 1.5h-17.6c-0.9 0-1.6-0.7-1.6-1.5 0-0.9 0.7-1.6 1.6-1.6z"/>
	<path class="s5" d="m534.5 372.8h2.9c0.8 0 1.5 0.7 1.5 1.6 0 0.9-0.7 1.6-1.5 1.6h-2.9c-0.8 0-1.5-0.7-1.5-1.6 0-0.9 0.7-1.6 1.5-1.6z"/>
	<path class="s5" d="m567.1 372.8h2.8c0.9 0 1.6 0.7 1.6 1.6 0 0.9-0.7 1.6-1.6 1.6h-2.8c-0.9 0-1.6-0.7-1.6-1.6 0-0.9 0.7-1.6 1.6-1.6z"/>
	<path class="s5" d="m576.3 372.8h2.8c0.9 0 1.6 0.7 1.6 1.6 0 0.9-0.7 1.6-1.6 1.6h-2.8c-0.9 0-1.6-0.7-1.6-1.6 0-0.9 0.7-1.6 1.6-1.6z"/>
	<path class="s5" d="m543.4 372.6h17.7c0.8 0 1.5 0.7 1.5 1.5 0 0.9-0.7 1.6-1.5 1.6h-17.7c-0.9 0-1.6-0.7-1.6-1.6 0-0.8 0.7-1.5 1.6-1.5z"/>
	<path class="s5" d="m586.7 372.6h17.7c0.9 0 1.6 0.7 1.6 1.5 0 0.9-0.7 1.6-1.6 1.6h-17.7c-0.8 0-1.5-0.7-1.5-1.6 0-0.8 0.7-1.5 1.5-1.5z"/>
	<path class="s5" d="m543.2 379.9h2.9c0.8 0 1.5 0.7 1.5 1.5 0 0.9-0.7 1.6-1.5 1.6h-2.9c-0.9 0-1.6-0.7-1.6-1.6 0-0.8 0.7-1.5 1.6-1.5z"/>
	<path class="s5" d="m575.7 379.9h2.9c0.8 0 1.5 0.7 1.5 1.5 0 0.9-0.7 1.6-1.5 1.6h-2.9c-0.8 0-1.5-0.7-1.5-1.6 0-0.8 0.7-1.5 1.5-1.5z"/>
	<path class="s5" d="m584.9 379.9h2.9c0.9 0 1.6 0.7 1.6 1.5 0 0.9-0.7 1.6-1.6 1.6h-2.9c-0.8 0-1.5-0.7-1.5-1.6 0-0.8 0.7-1.5 1.5-1.5z"/>
	<path class="s5" d="m552.1 379.6h17.6c0.9 0 1.6 0.7 1.6 1.6 0 0.8-0.7 1.5-1.6 1.5h-17.6c-0.9 0-1.6-0.7-1.6-1.5 0-0.9 0.7-1.6 1.6-1.6z"/>
	<path class="s5" d="m549.7 407.9h2.9c0.8 0 1.5 0.7 1.5 1.6 0 0.8-0.7 1.5-1.5 1.5h-2.9c-0.8 0-1.5-0.7-1.5-1.5 0-0.9 0.7-1.6 1.5-1.6z"/>
	<path class="s5" d="m558.9 407.9h2.9c0.8 0 1.5 0.7 1.5 1.6 0 0.8-0.7 1.5-1.5 1.5h-2.9c-0.8 0-1.5-0.7-1.5-1.5 0-0.9 0.7-1.6 1.5-1.6z"/>
	<path class="s5" d="m569.4 408.2h17.7c0.8 0 1.5 0.7 1.5 1.5 0 0.9-0.7 1.6-1.5 1.6h-17.7c-0.9 0-1.6-0.7-1.6-1.6 0-0.8 0.7-1.5 1.6-1.5z"/>
	<path class="s5" d="m517.2 407.9h2.8c0.9 0 1.6 0.7 1.6 1.6 0 0.8-0.7 1.5-1.6 1.5h-2.8c-0.9 0-1.6-0.7-1.6-1.5 0-0.9 0.7-1.6 1.6-1.6z"/>
	<path class="s5" d="m526 408.2h17.7c0.9 0 1.6 0.7 1.6 1.5 0 0.9-0.7 1.6-1.6 1.6h-17.7c-0.8 0-1.5-0.7-1.5-1.6 0-0.8 0.7-1.5 1.5-1.5z"/>
	<path class="s5" d="m525.9 400.9h2.8c0.9 0 1.6 0.6 1.6 1.5 0 0.9-0.7 1.6-1.6 1.6h-2.8c-0.9 0-1.6-0.7-1.6-1.6 0-0.9 0.7-1.5 1.6-1.5z"/>
	<path class="s5" d="m558.4 400.9h2.8c0.9 0 1.6 0.6 1.6 1.5 0 0.9-0.7 1.6-1.6 1.6h-2.8c-0.9 0-1.6-0.7-1.6-1.6 0-0.9 0.7-1.5 1.6-1.5z"/>
	<path class="s5" d="m567.6 400.9h2.8c0.9 0 1.6 0.6 1.6 1.5 0 0.9-0.7 1.6-1.6 1.6h-2.8c-0.9 0-1.6-0.7-1.6-1.6 0-0.9 0.7-1.5 1.6-1.5z"/>
	<path class="s5" d="m534.7 401.1h17.7c0.8 0 1.5 0.7 1.5 1.6 0 0.8-0.7 1.5-1.5 1.5h-17.7c-0.9 0-1.5-0.7-1.5-1.5 0-0.9 0.6-1.6 1.5-1.6z"/>
	<path class="s5" d="m534.5 393.8h2.9c0.8 0 1.5 0.7 1.5 1.6 0 0.8-0.7 1.5-1.5 1.5h-2.9c-0.8 0-1.5-0.7-1.5-1.5 0-0.9 0.7-1.6 1.5-1.6z"/>
	<path class="s5" d="m567.1 393.8h2.8c0.9 0 1.6 0.7 1.6 1.6 0 0.8-0.7 1.5-1.6 1.5h-2.8c-0.9 0-1.6-0.7-1.6-1.5 0-0.9 0.7-1.6 1.6-1.6z"/>
	<path class="s5" d="m576.3 393.8h2.8c0.9 0 1.6 0.7 1.6 1.6 0 0.8-0.7 1.5-1.6 1.5h-2.8c-0.9 0-1.6-0.7-1.6-1.5 0-0.9 0.7-1.6 1.6-1.6z"/>
	<path class="s5" d="m543.4 394.1h17.7c0.8 0 1.5 0.7 1.5 1.5 0 0.9-0.7 1.6-1.5 1.6h-17.7c-0.9 0-1.6-0.7-1.6-1.6 0-0.8 0.7-1.5 1.6-1.5z"/>
	<path class="s5" d="m543.2 386.8h2.9c0.8 0 1.5 0.7 1.5 1.5 0 0.9-0.7 1.6-1.5 1.6h-2.9c-0.9 0-1.6-0.7-1.6-1.6 0-0.8 0.7-1.5 1.6-1.5z"/>
	<path class="s5" d="m575.7 386.8h2.9c0.8 0 1.5 0.7 1.5 1.5 0 0.9-0.7 1.6-1.5 1.6h-2.9c-0.8 0-1.5-0.7-1.5-1.6 0-0.8 0.7-1.5 1.5-1.5z"/>
	<path class="s5" d="m584.9 386.8h2.9c0.9 0 1.6 0.7 1.6 1.5 0 0.9-0.7 1.6-1.6 1.6h-2.9c-0.8 0-1.5-0.7-1.5-1.6 0-0.8 0.7-1.5 1.5-1.5z"/>
	<path class="s5" d="m552.1 387h17.6c0.9 0 1.6 0.7 1.6 1.6 0 0.8-0.7 1.5-1.6 1.5h-17.6c-0.9 0-1.6-0.7-1.6-1.5 0-0.9 0.7-1.6 1.6-1.6z"/>
	<path class="s6" d="m504.9 490.5l-13.3-21.1 41.9-33.4 17.3-19.2c2.2-2.5 5.1-4.3 8.3-5.4 3.2-1 6.6-1.2 9.8-0.5 3.3 0.7 6.4 2.2 8.9 4.5 2.5 2.2 4.3 5.1 5.4 8.2 0.8 2.4 1.1 4.8 0.9 7.3-0.2 2.5-0.8 4.9-1.9 7.1-1 2.2-2.5 4.2-4.3 5.8-1.9 1.7-4 3-6.3 3.8l-27.3 10.1z"/>
	<path fill-rule="evenodd" class="s7" d="m192 336.2q0.2-0.7 0.7-1.2 0.5-0.5 1.1-0.7 0.7-0.3 1.4-0.3h64.9q0.1 0 0.2 0 0.2 0 0.3 0.1 0.1 0 0.3 0 0.1 0 0.2 0.1 0.5 0.1 1 0.5 0.4 0.3 0.8 0.7 0.3 0.5 0.5 1 0.1 0.5 0.1 1.1v102.5h-71.8v-102.5q0-0.7 0.3-1.3zm27.7 48.4c0 2 0.9 4 2.3 5.4 1.4 1.4 3.4 2.3 5.4 2.3 2 0 4-0.9 5.4-2.3 1.4-1.4 2.3-3.4 2.3-5.4v-11.9c0-2-0.9-3.9-2.3-5.4-1.4-1.4-3.4-2.2-5.4-2.2-2 0-4 0.8-5.4 2.2-1.4 1.5-2.3 3.4-2.3 5.4z"/>
	<path class="s2" d="m191.5 436.8v9.9q0 0.3 0.1 0.7 0.2 0.3 0.4 0.6 0.3 0.3 0.7 0.4 0.3 0.2 0.7 0.2h68.4q0.4 0 0.8-0.2 0.3-0.1 0.6-0.4 0.3-0.3 0.4-0.6 0.2-0.4 0.2-0.7v-9.9z"/>
	<path class="s4" d="m78.7 183v187.2c0 1.2 0.2 2.4 0.6 3.5 0.5 1.1 1.2 2 2 2.9 0.8 0.8 1.8 1.5 2.9 1.9 1.1 0.5 2.3 0.7 3.5 0.7h277.5c1.1 0 2.3-0.2 3.4-0.7 1.1-0.4 2.1-1.1 2.9-1.9 0.9-0.9 1.5-1.8 2-2.9 0.4-1.1 0.7-2.3 0.7-3.5v-187.2c0-1.2-0.3-2.4-0.7-3.5-0.5-1.1-1.1-2.1-2-2.9-0.8-0.8-1.8-1.5-2.9-1.9-1.1-0.5-2.3-0.7-3.4-0.7h-277.5c-1.2 0-2.4 0.2-3.5 0.7-1.1 0.4-2.1 1.1-2.9 1.9-0.8 0.8-1.5 1.8-1.9 2.9-0.5 1.1-0.7 2.3-0.7 3.5z"/>
	<path class="s5" d="m85.2 185.3v182.6q0 1 0.3 1.9 0.4 0.8 1.1 1.5 0.7 0.7 1.5 1.1 0.9 0.3 1.9 0.3h272.8q1 0 1.9-0.3 0.9-0.4 1.5-1.1 0.7-0.7 1.1-1.5 0.4-0.9 0.4-1.9v-182.6q0-1-0.4-1.9-0.4-0.8-1-1.5-0.7-0.7-1.6-1.1-0.9-0.3-1.9-0.3h-272.8q-1 0-1.9 0.3-0.8 0.4-1.5 1.1-0.7 0.7-1.1 1.5-0.3 0.9-0.3 1.9z"/>
	<path class="s7" d="m135.8 447.9q0.2 0.3 0.5 0.5 0.2 0.2 0.5 0.3 0.3 0.2 0.7 0.3 0.3 0 0.6 0h162.4q0.6 0 1.3-0.3 0.6-0.3 1-0.8 0.4-0.5 0.6-1.2 0.1-0.6 0-1.3l-2.5-11.9q-0.1-0.4-0.3-0.7-0.1-0.4-0.4-0.7-0.2-0.2-0.5-0.5-0.3-0.2-0.7-0.3-0.1-0.1-0.2-0.1-0.2 0-0.3-0.1-0.1 0-0.3 0-0.1 0-0.3 0h-157.3q-0.1 0-0.2 0-0.2 0-0.3 0-0.1 0.1-0.3 0.1-0.1 0-0.2 0.1-0.4 0.1-0.7 0.3-0.3 0.3-0.5 0.5-0.3 0.3-0.4 0.7-0.2 0.3-0.3 0.7l-2.5 11.9q-0.1 0.4-0.1 0.7 0 0.3 0.1 0.6 0.1 0.4 0.3 0.7 0.1 0.3 0.3 0.5z"/>
	<path class="s2" d="m354 205.6h-255.3q-0.4 0-0.7-0.3-0.3-0.3-0.3-0.7 0-0.4 0.3-0.7 0.3-0.3 0.7-0.3h255.3q0.4 0 0.7 0.3 0.3 0.3 0.3 0.7 0 0.4-0.3 0.7-0.3 0.3-0.7 0.3z"/>
	<path class="s2" d="m116.1 198.4c-3.3 0-6-2.7-6-6.1 0-3.3 2.7-6.1 6-6.1 3.2 0 5.9 2.8 5.9 6.1 0 3.4-2.7 6.1-5.9 6.1z"/>
	<path class="s2" d="m136.6 198.4c-3.3 0-5.9-2.7-5.9-6.1 0-3.3 2.6-6.1 5.9-6.1 3.3 0 6 2.8 6 6.1 0 3.4-2.7 6.1-6 6.1z"/>
	<path class="s2" d="m157.2 198.4c-3.3 0-6-2.7-6-6.1 0-3.3 2.7-6.1 6-6.1 3.3 0 5.9 2.8 5.9 6.1 0 3.4-2.6 6.1-5.9 6.1z"/>
	<path class="s2" d="m341.6 187.8h-14.6c-0.3 0-0.5 0.1-0.7 0.3-0.3 0.2-0.4 0.5-0.4 0.8 0 0.2 0.1 0.5 0.4 0.7 0.2 0.2 0.4 0.4 0.7 0.4h14.6c0.3 0 0.6-0.2 0.8-0.4 0.2-0.2 0.3-0.5 0.3-0.7 0-0.3-0.1-0.6-0.3-0.8-0.2-0.2-0.5-0.3-0.8-0.3z"/>
	<path class="s2" d="m341.6 191.9h-14.6c-0.3 0-0.5 0.1-0.7 0.3-0.3 0.2-0.4 0.5-0.4 0.8 0 0.3 0.1 0.6 0.4 0.8 0.2 0.2 0.4 0.3 0.7 0.3h14.6c0.3 0 0.6-0.1 0.8-0.3 0.2-0.2 0.3-0.5 0.3-0.8 0-0.3-0.1-0.6-0.3-0.8-0.2-0.2-0.5-0.3-0.8-0.3z"/>
	<path class="s2" d="m341.6 196.1h-14.6c-0.3 0-0.5 0.1-0.7 0.3-0.3 0.2-0.4 0.5-0.4 0.8 0 0.2 0.1 0.5 0.4 0.7 0.2 0.2 0.4 0.4 0.7 0.4h14.6c0.3 0 0.6-0.2 0.8-0.4 0.2-0.2 0.3-0.5 0.3-0.7 0-0.3-0.1-0.6-0.3-0.8-0.2-0.2-0.5-0.3-0.8-0.3z"/>
	<path fill-rule="evenodd" class="s0" d="m686.5 389.1q-0.4-1.3-0.3-2.7 0.2-1.4 0.9-2.6 0.7-1.1 1.8-1.9 1.1-0.8 2.5-1.1 0.1 0 0.2 0 0.2-0.1 0.3-0.1 0.1 0 0.2 0 0.2 0 0.3 0l40.7-1.1q0.7 0 1.4 0.2 0.7 0.1 1.3 0.4 0.6 0.2 1.2 0.6 0.6 0.4 1 0.9 0.2 0 0.4 0 0.3-0.1 0.5-0.1 0.2 0 0.4 0 0.2 0 0.5 0c2.5-0.1 5 0.9 6.9 2.6 1.8 1.8 2.9 4.2 3 6.8 0 2.5-0.9 5-2.7 6.9-1.8 1.8-4.2 2.9-6.8 3q-0.5 0-1.1-0.1-0.5 0-1-0.1-0.6-0.1-1.1-0.3-0.5-0.2-1-0.4l-3.7 40.1q-0.3 1-0.9 1.8-0.6 0.9-1.4 1.5-0.8 0.6-1.7 1-1 0.3-2 0.4l-26.5 0.6q-1 0-2-0.2-1-0.3-1.8-0.9-0.8-0.6-1.5-1.4-0.6-0.8-0.9-1.8zm51 8.6q0.5 0.1 0.9 0.3 0.4 0.1 0.9 0.1 0.4 0 0.8 0c1.9 0 3.6-0.8 4.9-2.1 1.2-1.3 1.9-3.1 1.9-4.9-0.1-1.9-0.8-3.6-2.2-4.9-1.3-1.2-3.1-1.9-4.9-1.9-0.1 0-0.2 0.1-0.4 0.1q0.1 0.4 0.2 0.8 0.1 0.4 0.1 0.9-0.1 0.4-0.1 0.8-0.1 0.4-0.2 0.9l-2.6 9.5q0.3 0.2 0.7 0.4z"/>
	<path class="s0" d="m691.4 380.8c0.9 5 10.6 8.5 22.4 7.9 10.7-0.5 19.6-4.3 21.2-8.8q-0.2-0.1-0.5-0.1-0.2-0.1-0.4-0.1-0.3 0-0.5-0.1-0.2 0-0.5 0l-40.7 1.1q-0.1 0-0.3 0-0.1 0-0.2 0-0.1 0-0.3 0.1-0.1 0-0.2 0z"/>
	<path class="s3" d="m715.9 419.1q0 0 0 0 0.1 0 0.1-0.1 0 0 0 0 0 0 0.1 0l5.7-3.8q0.1 0 0.2-0.1 0-0.2 0-0.3 0-0.1 0-0.2-0.1-0.1-0.2-0.2l-6-3.9q-0.1-0.1-0.3-0.1-0.2 0.1-0.4 0.2-0.1 0.2 0 0.4 0 0.2 0.2 0.3l5.3 3.5-5.1 3.4q-0.1 0.1-0.2 0.2 0 0.2 0 0.4 0.1 0.2 0.3 0.2 0.1 0.1 0.3 0.1z"/>
	<path class="s3" d="m706.8 419.5q0.2 0 0.3-0.2 0.1-0.1 0.1-0.2 0-0.2-0.1-0.3 0-0.1-0.2-0.2l-5.3-3.1 5.2-3.8q0.1-0.1 0.2-0.3 0-0.2-0.1-0.4-0.2-0.1-0.4-0.2-0.2 0-0.3 0.1l-5.8 4.3q-0.1 0.1-0.1 0.2-0.1 0.1-0.1 0.2 0 0.1 0.1 0.3 0.1 0.1 0.2 0.1l5.9 3.4q0.1 0.1 0.1 0.1 0.1 0 0.1 0 0.1 0 0.1 0 0.1 0 0.1 0z"/>
	<path class="s3" d="m715.3 422.4q0.1 0 0.1 0 0 0 0-0.1 0 0 0 0 0.1 0 0.1 0 0.1 0 0.1-0.1 0.1-0.1 0.1-0.2 0-0.1 0-0.2 0-0.1-0.1-0.2l-8.1-13.4q-0.1-0.2-0.3-0.2-0.2-0.1-0.4 0.1-0.2 0.1-0.2 0.3-0.1 0.2 0 0.3l8.2 13.4q0 0.1 0.1 0.2 0 0 0.1 0.1 0.1 0 0.2 0 0.1 0 0.1 0z"/>
	<path class="s3" d="m212.6 260.8h44.2c1.8 0 3.3 1.5 3.3 3.3v4.3c0 1.8-1.5 3.3-3.3 3.3h-44.2c-1.8 0-3.2-1.5-3.2-3.3v-4.3c0-1.8 1.4-3.3 3.2-3.3z"/>
	<path class="s0" d="m186.9 282.5h95.7c1.8 0 3.3 1.5 3.3 3.3v4.3c0 1.8-1.5 3.3-3.3 3.3h-95.7c-1.8 0-3.3-1.5-3.3-3.3v-4.3c0-1.8 1.5-3.3 3.3-3.3z"/>
	<path class="s8" d="m186.9 304.2h95.7c1.8 0 3.3 1.5 3.3 3.3v4.3c0 1.8-1.5 3.3-3.3 3.3h-95.7c-1.8 0-3.3-1.5-3.3-3.3v-4.3c0-1.8 1.5-3.3 3.3-3.3z"/>
	<path class="s2" d="m290.7 376.8l0.2 0.7v0.1l6.6 19.8 7.5 22.9 14.1 42.9 0.1 6.7 1.1 53.7-2.9 7.3 3.2 11.9c0 0-1.5-18-9.5-7.7-4.6 5.9-10 11.9-14.4 17.6q9.6 3.9 19.6 7 2.1 0.7 4.3 1.3 0.4 0.2 0.9 0.3 8.2 2.4 16.5 4.3 8.4 1.9 16.8 3.3 8.5 1.3 17 2.2 8.5 0.8 17 1 1.8 0.1 3.5 0.1 0.6 0 1.2 0 1.9 0.1 3.8 0.1 3.9 0 7.7-0.2 7.1-0.2 14.2-0.7 7-0.6 14.1-1.6 7-0.9 13.9-2.2 7-1.4 13.9-3c-0.1-7.6-0.5-16.5-1-26-0.2-4.6-5.3-9.6-5.6-14.5-0.2-3.6 4.4-7.1 4.1-10.8-1.5-22.8-3.5-14-4.9-30.2q-0.2-2.4-0.4-4.6c-0.9-10.3-1.6-16.8-1.6-16.8l6.2-38.7 9.6-60.8-0.7-1.2-0.9-0.4-50.8-25.2-2.8-7q-0.6-1.6-1.6-2.8-1-1.3-2.4-2.3-1.3-0.9-2.9-1.4-1.6-0.5-3.2-0.5l-33.5-0.1q-1.3 0-2.6 0.3-1.3 0.3-2.4 0.9-1.2 0.6-2.2 1.4-1 0.9-1.7 1.9l-9.1 12.6z"/>
	<path class="s2" d="m326.8 453.7l-7.6 16.2-5.1 11.1-9 46.6-4.4 4.8-3.8-16.8-40 8.9c-1.3-7.3-0.4 0.2-1.2-7.8q0.3-0.3 0.7-0.7c0.6-0.6 1.2-1.1 1.2-1.6-0.5-27.6 0.9-74.6 12.3-103q0.7-1.8 1.5-3.4 0.7-1.7 1.6-3.4 0.9-1.6 1.9-3.2 1-1.6 2-3.1 0.4-0.5 0.7-0.9c5.3-7.4 8.6-14.7 13.3-19.9q0 0 0 0 0.1 0 0.1 0 0 0 0 0 0 0 0 0 0-0.1 0-0.1 0 0 0 0 0 0 0 0 0 0 0.1 0l32.4-17.2 1.4 39.1 1 28.1z"/>
	<path class="s2" d="m443.8 458.3l9.5 20.2 3.3 7.1 8.9 46.6 4.4 4.8 3.9-16.8 1.8-0.4 32.4-6.7 9.5 30.1c1-1.8 1.8-3.7 2.2-5.7 0.4-2.1 0.5-4.1 0.2-6.2-0.3-2-1-4-1.9-5.8-1-1.8-2.3-3.5-3.8-4.8-0.6-0.6-1.2-1.2-1.1-1.7 0.5-32.5-1.5-91.7-19.4-116.1-5.7-7.7-9.1-15.4-14.1-20.8q0-0.1 0-0.1l-12.1-19.8-0.7-1.2-0.9-0.4z"/>
	<path id="a657ec4b-47ce-4d2a-9c58-81a811696ca9" class="s6" d="m386.4 311.8c-24.6 0-44.6-20-44.6-44.6 0-24.6 20-44.6 44.6-44.6 24.6 0 44.6 20 44.6 44.6 0 24.6-20 44.6-44.6 44.6z"/>
	<path class="s7" d="m446.6 236.1q-0.2-0.3-0.5-0.5-0.4-0.2-0.7-0.4-0.3-0.1-0.7-0.2-0.4-0.1-0.8-0.1l0.7-1.9c0.2-0.6 0.3-1.2 0.2-1.8-0.1-0.6-0.4-1.2-0.8-1.7-0.4-0.5-0.9-0.8-1.5-1-0.6-0.2-1.2-0.3-1.9-0.2l-2.4 0.5 0.2-1.6q0.2-1-0.2-1.8-0.3-0.9-1-1.5-0.8-0.6-1.7-0.7-0.9-0.2-1.8 0.1-0.4 0.2-0.8 0.3-0.4 0-0.8 0-0.5 0-0.9-0.2-0.4-0.1-0.7-0.3-0.4-0.2-0.7-0.5-0.3-0.2-0.6-0.6-0.2-0.3-0.4-0.7-0.2-0.4-0.3-0.8l-0.8-4.1-0.1-0.2c-4.1-6.9-12.1-11.9-21.8-13.8-8.7-1.6-17.6-0.8-26.2 0-3.4 0.3-7.2 0.7-10.4 2.6-2.7 1.7-5 5.1-4.6 8.5-8.4-2.6-17.5 2.6-22 9.1-5.3 7.7-6.1 17.5-6.3 25.1-0.4 17.9 3.3 32.6 11 43.7 0.6 0.8 0.7 2.5 1.8 3l-0.2-0.4c1.2 0.7 2.5 1.7 2 2.7-1.3 3.1 7.6 9.9 14 12.2 11.5 4.1 26.8 3.7 37.6 2.3l0.4-2.6c3.9-0.5 6.6-1.5 7.4-3.1 1.3-1.2 2.5-2.2 3.5-3.2q0.1 0 0.1-0.1c4.9-4.6 6-7.3 6.5-11.3 0.5-4-0.4-8-1.3-11.7 18.8 2.9-7.3-19.9 10.1-24.3q0.1-0.1 0.2-0.1 0 0 0.1 0 0.1 0 0.2-0.1 0.1 0 0.1 0 0.8-0.2 1.5-0.4 0.9-0.2 1.8-0.5 0.9-0.3 1.7-0.7 0.8-0.3 1.7-0.8 0.8-0.4 1.6-0.8c4.8-3 6.5-7 9-11.4q0.2-0.5 0.4-1 0.1-0.5 0-1.1-0.1-0.5-0.3-1-0.2-0.5-0.6-0.9z"/>
	<path class="s7" d="m544 461.4c0 1.8 0 4.2-0.1 7.3q0 0.6 0 1.3c-0.2 5.5-0.3 10.2-0.5 15.4q0 0.5-0.1 1.1c-0.2 7.2-0.7 15.6-1.4 29-1.4 24.6-3.9 3.4-6.4 12q-0.2 0.7-0.3 1.6-0.2 0.8-0.4 1.6-0.2 0.8-0.4 1.6-0.2 0.8-0.5 1.5-0.3 0.8-0.6 1.6c-1.3 0.8-2.7 1.5-4 2.3q-5.7 3.1-11.5 6-3.3 1.7-6.6 3.2-0.5 0.2-1 0.5-4.3 1.9-8.5 3.7-4.3 1.8-8.7 3.5-4.3 1.7-8.7 3.2-4.4 1.5-8.9 2.8-3.5 1.1-7 2-3.6 1.1-7.3 2-6.9 1.6-13.9 3-6.9 1.3-14 2.2-7 1-14 1.6-7.1 0.5-14.2 0.7-3.8 0.2-7.7 0.2-1.9 0-3.8-0.1-0.6 0-1.2 0-1.7 0-3.5-0.1-8.5-0.2-17-1-8.5-0.9-17-2.2-8.4-1.4-16.8-3.3-8.3-1.9-16.5-4.3l-0.9-0.3q-2.2-0.6-4.3-1.3-9.9-3.1-19.6-7-7.3-3-14.5-6.4 0 0 0 0 0 0 0 0 0 0-0.1 0 0 0 0 0-1.5-0.7-3-1.4-0.2-0.1-0.4-0.3-5.6-2.7-11.1-5.7c-3-7-7.4-8.4-10-14.6q-0.3-0.7-0.6-1.4-0.2-0.7-0.4-1.4-0.3-0.7-0.4-1.4-0.2-0.8-0.3-1.5 0 0 0-0.1c0.3 3.7-1.2-6.6 0 0q-0.1-0.2-0.1-0.4 0-0.6-0.1-1.4c-3.4-33.5-3.2-71.8-4.7-103.3q-0.1-3.1-0.3-5.9-0.1-0.9-0.1-1.8 0.1-0.3 0.2-0.6 0 0 0 0 0 0 0.1 0 0-0.1 0-0.1 0 0 0 0 0 0 0-0.1 0 0 0 0 0.1 0 0.1 0 0-0.1 0-0.1 0 0 0.1-0.1 0 0 0 0 0 0 0 0 0-0.1 0-0.1 0 0 0 0 0.1-0.2 0.3-0.4 0.1-0.1 0.2-0.2 0 0 0 0 0 0 0-0.1 0 0 0 0 0.1 0 0.1 0 0 0 0-0.1 0 0 0 0 0 0 0.1 0 0 0 0-0.1 0 0 0.1-0.1 0 0 0 0 0 0 0 0 0.1 0 0.1-0.1 0 0 0 0 0 0 0.1 0 0-0.1 0-0.1 0 0 0.1-0.1 0 0 0.1 0 0.1-0.1 0.2-0.3 0.2-0.1 0.3-0.2 0.1-0.1 0.3-0.2 0.1-0.1 0.3-0.2 0.2-0.2 0.4-0.3 0.4-0.2 0.8-0.4 0.4-0.2 0.8-0.4 0.4-0.2 0.8-0.4 0.4-0.2 0.8-0.3 0.6-0.2 1.2-0.4 0.2-0.1 0.4-0.2 0.3-0.1 0.7-0.2 1.7-0.5 3.7-0.9 0.2 0 0.5-0.1 0.3 0 0.7-0.1 0.5-0.1 1.1-0.2 4.4-0.7 10-1 0.5-0.1 1.1-0.1 0.6 0 1.2 0 0.5-0.1 1.1-0.1 0.5 0 1.1 0 1.5-0.1 3.1-0.1 4.5-0.1 9.5 0 2.3 0.1 4.8 0.2 0.1 0 0.3 0 2.1 0.1 4.3 0.2 1.5 0 3 0.1 1.5 0.1 3 0.2 1.1 0.1 2.3 0.2 1 0.1 2 0.1l0.9 0.1q0.7 0 1.5 0.1 1.6 0.1 3.3 0.3 1.6 0.1 3.3 0.3 1.7 0.1 3.5 0.3 0.1 0 0.3 0 1.5 0.2 3.1 0.3 0.4 0.1 0.8 0.1 1.5 0.2 3 0.3 0.4 0.1 0.9 0.1 1.2 0.2 2.4 0.3c1 0.1 2.1 0.2 3.1 0.4q1.3 0.1 2.5 0.2 1.9 0.3 3.8 0.5 0.8 0.1 1.5 0.2 5.5 0.7 11.2 1.5 8.6 1.2 17.4 2.6 8.8 1.5 17.7 3.1 2.2 0.4 4.5 0.8 1 0.2 2 0.4 1.8 0.3 3.5 0.6 1.8 0.3 3.5 0.7 2.1 0.4 4.2 0.8c9 1.8 18.1 3.7 26.9 5.7q2.2 0.5 4.3 1 4.4 1 8.6 2.1 1.2 0.2 2.3 0.5 2.9 0.7 5.8 1.5l0.3 0.1q2.1 0.5 4.1 1 4.8 1.3 9.5 2.6 3.1 0.8 6.1 1.7 4.5 1.3 8.8 2.6 1.1 0.4 2.1 0.7 3.2 1 6.2 2 2.4 0.7 4.7 1.5 2.3 0.8 4.5 1.6 1.5 0.5 2.9 1.1 2 0.7 3.9 1.5 0.6 0.2 1.2 0.4 0.4 0.2 0.8 0.3 0.7 0.3 1.4 0.6 0.7 0.3 1.4 0.6 0.6 0.2 1.3 0.5 0.7 0.3 1.3 0.6 0.6 0.2 1.1 0.5 1.1 0.4 2.1 0.9 0.5 0.2 1 0.5l0.8 0.3q0.2 0.1 0.4 0.2 0.3 0.2 0.7 0.4 0.9 0.4 1.7 0.8 1.1 0.6 2.2 1.1 1.1 0.6 2.1 1.1 0.1 0.1 0.3 0.2 0.2 0.2 0.4 0.3 0.8 0.4 1.5 0.9 1.5 0.8 2.7 1.7 0.3 0.2 0.6 0.4 0.9 0.7 1.8 1.3 0 0 0 0 0.3 0.3 0.6 0.5 0.2 0.2 0.4 0.4 0.8 0.6 1.5 1.3 0 0 0.1 0.1 0 0 0.1 0.1 0 0 0.1 0.1 0 0.1 0.1 0.1 0 0 0 0.1 0 0 0.1 0 0 0 0 0 0 0.1 0 0.1 0.3 0.3 0.6 0.6 0 0 0 0 0 0 0 0 0 0 0 0 0 0.1 0.1 0.1 0.3 0.4 0.6 0.8 0.2 0.2 0.3 0.4 0.2 0.3 0.4 0.5 0.1 0.3 0.2 0.5 0.1 0.1 0.2 0.3 0 0.1 0.1 0.2 0.1 0.2 0.1 0.3 0.1 0.2 0.2 0.3 0 0.1 0 0.2 0.1 0.1 0.1 0.2 0 0.1 0.1 0.2 0 0.1 0 0.2 0.1 0.1 0.1 0.2 0 0.1 0 0.2 0 0.1 0.1 0.2 0 0.1 0 0.2z"/>
	<path class="s9" d="m544 461.4c0 1.8 0 4.2-0.1 7.3q0 0.6-0.1 1.3c-0.1 4.2-0.2 9.5-0.4 15.4q0 0.5-0.1 1.1c-0.2 7.2-0.7 15.6-1.4 29-1.4 24.6-3.9 3.4-6.4 12-6.8-4.2-14.4-8.6-22.4-13.2q-2.2-1.2-4.4-2.4c-16.1-9-34-18.4-52.8-27.7q-1.1-0.6-2.2-1.1c-43-21.2-89.8-41.9-127.8-55.7-7.3-2.6-14.3-5-20.9-7.1-13.9-4.5-25.9-7.6-35.1-8.9-9.6-1.4-16.2-0.9-18.9 2q-0.1-3.1-0.3-5.9-0.1-0.9-0.1-1.8 0.1-0.3 0.2-0.5 0 0 0-0.1 0 0 0 0 0 0 0.1 0 0-0.1 0-0.1 0 0 0 0 0 0 0-0.1 0 0 0 0 0.1 0 0.1 0 0-0.1 0-0.1 0 0 0 0 0-0.1 0-0.1 0.1 0 0.1 0 0-0.1 0-0.1 0.1-0.2 0.3-0.4 0-0.1 0.1-0.1 0 0 0-0.1 0.1 0 0.1-0.1 0 0 0.1 0 0 0 0-0.1 0 0 0 0 0 0 0.1 0 0 0 0-0.1 0 0 0.1-0.1 0 0 0 0 0 0 0 0 0.1 0 0.1-0.1 0 0 0 0 0 0 0.1 0 0-0.1 0-0.1 0 0 0.1-0.1 0 0 0.1 0 0.1-0.1 0.2-0.3 0.2-0.1 0.3-0.2 0.1-0.1 0.3-0.2 0.1-0.1 0.3-0.2 0.2-0.2 0.4-0.3 0.4-0.2 0.8-0.4 0.4-0.2 0.8-0.4 0.4-0.2 0.8-0.4 0.4-0.2 0.8-0.3 0.6-0.2 1.2-0.4 0.2-0.1 0.4-0.2 0.3-0.1 0.7-0.2 1.7-0.5 3.7-0.9 0.6-0.1 1.2-0.2 0.5-0.1 1.1-0.2 4.4-0.7 10-1 0.5-0.1 1.1-0.1 0.6 0 1.2 0 0.5-0.1 1.1-0.1 0.5 0 1.1 0 1.5-0.1 3.1-0.1 4.5-0.1 9.5 0 2.3 0.1 4.8 0.2 0.1 0 0.3 0 2.1 0.1 4.3 0.2 1.5 0 3 0.1 1.5 0.1 3 0.2 1.1 0.1 2.3 0.2 1 0.1 2 0.1 1.2 0.1 2.4 0.2 1.6 0.1 3.3 0.3 1.6 0.1 3.3 0.3 1.7 0.1 3.5 0.3 0.1 0 0.3 0 1.5 0.2 3.1 0.3 8.8 0.9 18 2.1 5.5 0.7 11.2 1.5 8.6 1.2 17.4 2.6 8.8 1.5 17.7 3.1 2.2 0.4 4.5 0.8 2.8 0.5 5.5 1 1.8 0.3 3.5 0.7 2.1 0.4 4.2 0.8c9 1.8 18.1 3.7 26.9 5.7q2.2 0.5 4.3 1 4.4 1 8.6 2.1 1.2 0.3 2.3 0.5 2.9 0.8 5.8 1.5 0.1 0 0.3 0.1 2.1 0.5 4.1 1 4.8 1.3 9.5 2.6 3.1 0.8 6.1 1.7 4.5 1.3 8.8 2.6 1.1 0.4 2.1 0.7 3.2 1 6.2 2 2.4 0.7 4.7 1.5 2.3 0.8 4.5 1.6 1.5 0.5 2.9 1.1 2 0.7 3.9 1.5 0.6 0.2 1.2 0.4 1.1 0.4 2.2 0.9 0.7 0.3 1.4 0.6 0.6 0.2 1.3 0.5 0.7 0.3 1.3 0.6 0.6 0.2 1.1 0.5 1.1 0.4 2.1 0.9 0.5 0.2 1 0.5l0.8 0.3q0.2 0.1 0.4 0.2 1.2 0.6 2.4 1.2 1.1 0.6 2.2 1.1 1.2 0.7 2.4 1.3 0.2 0.2 0.4 0.3 0.8 0.4 1.5 0.9 1.5 0.8 2.7 1.7 1.3 0.9 2.4 1.7 0 0 0 0 0.5 0.5 1 0.9 0.8 0.6 1.5 1.3 0 0 0.1 0.1 0 0 0.1 0.1 0 0 0.1 0.1 0 0.1 0.1 0.1 0 0 0 0.1 0 0 0.1 0 0 0 0 0 0 0.1 0 0.1 0.3 0.3 0.7 0.7 0.3 0.4 0.6 0.8 0.2 0.2 0.3 0.4 0.2 0.3 0.4 0.5 0.1 0.3 0.2 0.5 0.1 0.1 0.2 0.3 0 0.1 0.1 0.2 0.1 0.2 0.1 0.3 0.1 0.2 0.2 0.3 0 0.1 0 0.2 0.1 0.1 0.1 0.2 0 0.1 0.1 0.2 0 0.1 0 0.2 0.1 0.1 0.1 0.2 0 0.1 0 0.2 0 0.1 0.1 0.2 0 0.1 0 0.2z"/>
</svg>